<svg width="320" height="118" viewBox="0 0 320 118" fill="none" xmlns="http://www.w3.org/2000/svg">
<path d="M320 116.395L312.3 117.178C304.7 117.961 289.3 119.527 274.2 114.046C259 108.566 244 96.0391 228.8 93.7948C213.7 91.4982 198.3 99.5362 183 105.434C167.7 111.332 152.3 115.195 137 115.978C121.7 116.761 106.3 114.464 91.2 113.003C76 111.541 61 110.81 45.8 107.94C30.7 105.069 15.3 100.058 7.70001 97.5006L0 94.9952V-3.05176e-05H7.70001C15.3 -3.05176e-05 30.7 -3.05176e-05 45.8 -3.05176e-05C61 -3.05176e-05 76 -3.05176e-05 91.2 -3.05176e-05C106.3 -3.05176e-05 121.7 -3.05176e-05 137 -3.05176e-05C152.3 -3.05176e-05 167.7 -3.05176e-05 183 -3.05176e-05C198.3 -3.05176e-05 213.7 -3.05176e-05 228.8 -3.05176e-05C244 -3.05176e-05 259 -3.05176e-05 274.2 -3.05176e-05C289.3 -3.05176e-05 304.7 -3.05176e-05 312.3 -3.05176e-05H320V116.395Z" fill="#D9DCE9"/>
<path d="M320 67.8537L312.3 71.2464C304.7 74.6391 289.3 81.4245 274.2 85.9655C259 90.4543 244 92.7509 228.8 90.8196C213.7 88.8884 198.3 82.8338 183 82.7294C167.7 82.625 152.3 88.5752 137 92.3855C121.7 96.1957 106.3 97.9704 91.2 93.4294C76 88.8884 61 78.1362 45.8 73.9606C30.7 69.785 15.3 72.186 7.70001 73.4386L0 74.6391V-7.62939e-06H7.70001C15.3 -7.62939e-06 30.7 -7.62939e-06 45.8 -7.62939e-06C61 -7.62939e-06 76 -7.62939e-06 91.2 -7.62939e-06C106.3 -7.62939e-06 121.7 -7.62939e-06 137 -7.62939e-06C152.3 -7.62939e-06 167.7 -7.62939e-06 183 -7.62939e-06C198.3 -7.62939e-06 213.7 -7.62939e-06 228.8 -7.62939e-06C244 -7.62939e-06 259 -7.62939e-06 274.2 -7.62939e-06C289.3 -7.62939e-06 304.7 -7.62939e-06 312.3 -7.62939e-06H320V67.8537Z" fill="#AAB2CE"/>
<path d="M320 77.7708L312.3 73.9606C304.7 70.0981 289.3 62.4776 274.2 59.1371C259 55.8488 244 56.8927 228.8 59.3981C213.7 61.9557 198.3 65.9225 183 63.9391C167.7 61.9557 152.3 53.9176 137 51.0469C121.7 48.1761 106.3 50.4727 91.2 52.0908C76 53.761 61 54.8049 45.8 58.041C30.7 61.2249 15.3 66.6532 7.70001 69.3152L0 72.0293V-3.05176e-05H7.70001C15.3 -3.05176e-05 30.7 -3.05176e-05 45.8 -3.05176e-05C61 -3.05176e-05 76 -3.05176e-05 91.2 -3.05176e-05C106.3 -3.05176e-05 121.7 -3.05176e-05 137 -3.05176e-05C152.3 -3.05176e-05 167.7 -3.05176e-05 183 -3.05176e-05C198.3 -3.05176e-05 213.7 -3.05176e-05 228.8 -3.05176e-05C244 -3.05176e-05 259 -3.05176e-05 274.2 -3.05176e-05C289.3 -3.05176e-05 304.7 -3.05176e-05 312.3 -3.05176e-05H320V77.7708Z" fill="#7C89B4"/>
<path d="M320 41.2342L312.3 41.8605C304.7 42.4347 289.3 43.6874 274.2 42.8C259 41.9127 244 38.9898 228.8 40.1903C213.7 41.3908 198.3 46.8191 183 49.1679C167.7 51.5166 152.3 50.7859 137 49.8464C121.7 48.9069 106.3 47.6542 91.2 45.7752C76 43.8439 61 41.2342 45.8 42.6435C30.7 44.0005 15.3 49.4288 7.70001 52.0908L0 54.8049V-2.67029e-05L7.70001 -2.67029e-05C15.3 -2.67029e-05 30.7 -2.67029e-05 45.8 -2.67029e-05C61 -2.67029e-05 76 -2.67029e-05 91.2 -2.67029e-05C106.3 -2.67029e-05 121.7 -2.67029e-05 137 -2.67029e-05C152.3 -2.67029e-05 167.7 -2.67029e-05 183 -2.67029e-05C198.3 -2.67029e-05 213.7 -2.67029e-05 228.8 -2.67029e-05C244 -2.67029e-05 259 -2.67029e-05 274.2 -2.67029e-05C289.3 -2.67029e-05 304.7 -2.67029e-05 312.3 -2.67029e-05H320V41.2342Z" fill="#4C639A"/>
<path d="M320 26.6195L312.3 26.0976C304.7 25.5756 289.3 24.5317 274.2 24.6883C259 24.8971 244 26.2542 228.8 26.2542C213.7 26.2542 198.3 24.8971 183 24.8971C167.7 24.8971 152.3 26.2542 137 27.559C121.7 28.8639 106.3 30.1166 91.2 30.0122C76 29.9078 61 28.5507 45.8 25.5756C30.7 22.6005 15.3 18.1117 7.70001 15.8151L0 13.5707V-2.67029e-05H7.70001C15.3 -2.67029e-05 30.7 -2.67029e-05 45.8 -2.67029e-05C61 -2.67029e-05 76 -2.67029e-05 91.2 -2.67029e-05C106.3 -2.67029e-05 121.7 -2.67029e-05 137 -2.67029e-05C152.3 -2.67029e-05 167.7 -2.67029e-05 183 -2.67029e-05C198.3 -2.67029e-05 213.7 -2.67029e-05 228.8 -2.67029e-05C244 -2.67029e-05 259 -2.67029e-05 274.2 -2.67029e-05C289.3 -2.67029e-05 304.7 -2.67029e-05 312.3 -2.67029e-05H320V26.6195Z" fill="#004080"/>
</svg>
