<svg width="475" height="165" viewBox="0 0 475 165" fill="none" xmlns="http://www.w3.org/2000/svg">
<path d="M0 2.23436L11.4297 1.14425C22.7109 0.0541324 45.5703 -2.1261 67.9844 5.50471C90.5469 13.1355 112.812 30.5774 135.375 33.7024C157.789 36.9001 180.648 25.7082 203.359 17.496C226.07 9.28378 248.93 3.90587 271.641 2.81575C294.352 1.72564 317.211 4.92332 339.625 6.9582C362.188 8.99309 384.453 10.0105 407.016 14.0076C429.43 18.0047 452.289 24.9815 463.57 28.5425L475 32.0309V164.298H463.57C452.289 164.298 429.43 164.298 407.016 164.298C384.453 164.298 362.188 164.298 339.625 164.298C317.211 164.298 294.352 164.298 271.641 164.298C248.93 164.298 226.07 164.298 203.359 164.298C180.648 164.298 157.789 164.298 135.375 164.298C112.812 164.298 90.5469 164.298 67.9844 164.298C45.5703 164.298 22.7109 164.298 11.4297 164.298H0V2.23436Z" fill="#D9DCE9"/>
<path d="M0 69.8215L11.4297 65.0977C22.7109 60.3739 45.5703 50.9262 67.9844 44.6035C90.5469 38.3535 112.812 35.1558 135.375 37.8448C157.789 40.5337 180.648 48.964 203.359 49.1093C226.07 49.2547 248.93 40.9698 271.641 35.6646C294.352 30.3593 317.211 27.8884 339.625 34.2111C362.188 40.5337 384.453 55.5047 407.016 61.3186C429.43 67.1326 452.289 63.7895 463.57 62.0454L475 60.3739V164.298H463.57C452.289 164.298 429.43 164.298 407.016 164.298C384.453 164.298 362.188 164.298 339.625 164.298C317.211 164.298 294.352 164.298 271.641 164.298C248.93 164.298 226.07 164.298 203.359 164.298C180.648 164.298 157.789 164.298 135.375 164.298C112.812 164.298 90.5469 164.298 67.9844 164.298C45.5703 164.298 22.7109 164.298 11.4297 164.298H0V69.8215Z" fill="#AAB2CE"/>
<path d="M0 56.0134L11.4297 61.3186C22.7109 66.6965 45.5703 77.307 67.9844 81.9582C90.5469 86.5367 112.812 85.0832 135.375 81.5948C157.789 78.0338 180.648 72.5105 203.359 75.2721C226.07 78.0338 248.93 89.2256 271.641 93.2227C294.352 97.2198 317.211 94.0221 339.625 91.7692C362.188 89.4437 384.453 87.9901 407.016 83.4843C429.43 79.0512 452.289 71.4931 463.57 67.7867L475 64.0076V164.298H463.57C452.289 164.298 429.43 164.298 407.016 164.298C384.453 164.298 362.188 164.298 339.625 164.298C317.211 164.298 294.352 164.298 271.641 164.298C248.93 164.298 226.07 164.298 203.359 164.298C180.648 164.298 157.789 164.298 135.375 164.298C112.812 164.298 90.5469 164.298 67.9844 164.298C45.5703 164.298 22.7109 164.298 11.4297 164.298H0V56.0134Z" fill="#7C89B4"/>
<path d="M0 106.886L11.4297 106.013C22.7109 105.214 45.5703 103.47 67.9844 104.705C90.5469 105.941 112.812 110.011 135.375 108.339C157.789 106.667 180.648 99.1094 203.359 95.839C226.07 92.5687 248.93 93.5861 271.641 94.8942C294.352 96.2024 317.211 97.9466 339.625 100.563C362.188 103.252 384.453 106.886 407.016 104.923C429.43 103.034 452.289 95.4756 463.57 91.7693L475 87.9902V164.298H463.57C452.289 164.298 429.43 164.298 407.016 164.298C384.453 164.298 362.188 164.298 339.625 164.298C317.211 164.298 294.352 164.298 271.641 164.298C248.93 164.298 226.07 164.298 203.359 164.298C180.648 164.298 157.789 164.298 135.375 164.298C112.812 164.298 90.5469 164.298 67.9844 164.298C45.5703 164.298 22.7109 164.298 11.4297 164.298H0V106.886Z" fill="#4C639A"/>
<path d="M0 127.234L11.4297 127.961C22.7109 128.688 45.5703 130.141 67.9844 129.923C90.5469 129.633 112.812 127.743 135.375 127.743C157.789 127.743 180.648 129.633 203.359 129.633C226.07 129.633 248.93 127.743 271.641 125.926C294.352 124.109 317.211 122.365 339.625 122.51C362.188 122.656 384.453 124.545 407.016 128.688C429.43 132.83 452.289 139.08 463.57 142.278L475 145.403V164.298H463.57C452.289 164.298 429.43 164.298 407.016 164.298C384.453 164.298 362.188 164.298 339.625 164.298C317.211 164.298 294.352 164.298 271.641 164.298C248.93 164.298 226.07 164.298 203.359 164.298C180.648 164.298 157.789 164.298 135.375 164.298C112.812 164.298 90.5469 164.298 67.9844 164.298C45.5703 164.298 22.7109 164.298 11.4297 164.298H0V127.234Z" fill="#004080"/>
</svg>
