<svg width="475" height="86" viewBox="0 0 475 86" fill="none" xmlns="http://www.w3.org/2000/svg">
<path d="M475 84.8338L463.57 85.4028C452.289 85.9717 429.43 87.1097 407.016 83.1268C384.453 79.1439 362.188 70.0401 339.625 68.409C317.211 66.7399 294.352 72.5816 271.641 76.8679C248.93 81.1543 226.07 83.9613 203.359 84.5303C180.648 85.0993 157.789 83.4303 135.375 82.3682C112.812 81.306 90.5469 80.775 67.9844 78.6887C45.5703 76.6024 22.711 72.9609 11.4297 71.1022L0 69.2814V0.244164H11.4297C22.711 0.244164 45.5703 0.244164 67.9844 0.244164C90.5469 0.244164 112.812 0.244164 135.375 0.244164C157.789 0.244164 180.648 0.244164 203.359 0.244164C226.07 0.244164 248.93 0.244164 271.641 0.244164C294.352 0.244164 317.211 0.244164 339.625 0.244164C362.188 0.244164 384.453 0.244164 407.016 0.244164C429.43 0.244164 452.289 0.244164 463.57 0.244164H475V84.8338Z" fill="#D9DCE9"/>
<path d="M475 49.5565L463.57 52.0221C452.289 54.4877 429.43 59.419 407.016 62.7191C384.453 65.9813 362.188 67.6503 339.625 66.2468C317.211 64.8433 294.352 60.4432 271.641 60.3673C248.93 60.2914 226.07 64.6157 203.359 67.3848C180.648 70.1539 157.789 71.4436 135.375 68.1435C112.812 64.8433 90.5469 57.0292 67.9844 53.9946C45.5703 50.96 22.711 52.7049 11.4297 53.6153L0 54.4877V0.244184H11.4297C22.711 0.244184 45.5703 0.244184 67.9844 0.244184C90.5469 0.244184 112.812 0.244184 135.375 0.244184C157.789 0.244184 180.648 0.244184 203.359 0.244184C226.07 0.244184 248.93 0.244184 271.641 0.244184C294.352 0.244184 317.211 0.244184 339.625 0.244184C362.188 0.244184 384.453 0.244184 407.016 0.244184C429.43 0.244184 452.289 0.244184 463.57 0.244184H475V49.5565Z" fill="#AAB2CE"/>
<path d="M475 56.7637L463.57 53.9946C452.289 51.1876 429.43 45.6495 407.016 43.2218C384.453 40.832 362.188 41.5907 339.625 43.4114C317.211 45.2701 294.352 48.153 271.641 46.7116C248.93 45.2701 226.07 39.4285 203.359 37.3422C180.648 35.2559 157.789 36.925 135.375 38.1009C112.812 39.3147 90.5469 40.0734 67.9844 42.4252C45.5703 44.7391 22.711 48.6841 11.4297 50.6186L0 52.5911V0.244193H11.4297C22.711 0.244193 45.5703 0.244193 67.9844 0.244193C90.5469 0.244193 112.812 0.244193 135.375 0.244193C157.789 0.244193 180.648 0.244193 203.359 0.244193C226.07 0.244193 248.93 0.244193 271.641 0.244193C294.352 0.244193 317.211 0.244193 339.625 0.244193C362.188 0.244193 384.453 0.244193 407.016 0.244193C429.43 0.244193 452.289 0.244193 463.57 0.244193H475V56.7637Z" fill="#7C89B4"/>
<path d="M475 30.2109L463.57 30.6661C452.289 31.0834 429.43 31.9937 407.016 31.3489C384.453 30.704 362.188 28.5798 339.625 29.4522C317.211 30.3247 294.352 34.2697 271.641 35.9767C248.93 37.6836 226.07 37.1526 203.359 36.4698C180.648 35.787 157.789 34.8766 135.375 33.511C112.812 32.1075 90.5469 30.2109 67.9844 31.2351C45.5703 32.2213 22.711 36.1663 11.4297 38.1009L0 40.0734V0.24418H11.4297C22.711 0.24418 45.5703 0.24418 67.9844 0.24418C90.5469 0.24418 112.812 0.24418 135.375 0.24418C157.789 0.24418 180.648 0.24418 203.359 0.24418C226.07 0.24418 248.93 0.24418 271.641 0.24418C294.352 0.24418 317.211 0.24418 339.625 0.24418C362.188 0.24418 384.453 0.24418 407.016 0.24418C429.43 0.24418 452.289 0.24418 463.57 0.24418H475V30.2109Z" fill="#4C639A"/>
<path d="M475 19.5898L463.57 19.2105C452.289 18.8311 429.43 18.0725 407.016 18.1863C384.453 18.338 362.188 19.3243 339.625 19.3243C317.211 19.3243 294.352 18.338 271.641 18.338C248.93 18.338 226.07 19.3243 203.359 20.2726C180.648 21.2209 157.789 22.1313 135.375 22.0554C112.812 21.9795 90.5469 20.9933 67.9844 18.8311C45.5703 16.669 22.711 13.4068 11.4297 11.7378L0 10.1067V0.244193H11.4297C22.711 0.244193 45.5703 0.244193 67.9844 0.244193C90.5469 0.244193 112.812 0.244193 135.375 0.244193C157.789 0.244193 180.648 0.244193 203.359 0.244193C226.07 0.244193 248.93 0.244193 271.641 0.244193C294.352 0.244193 317.211 0.244193 339.625 0.244193C362.188 0.244193 384.453 0.244193 407.016 0.244193C429.43 0.244193 452.289 0.244193 463.57 0.244193H475V19.5898Z" fill="#004080"/>
</svg>
