<svg width="320" height="227" viewBox="0 0 320 227" fill="none" xmlns="http://www.w3.org/2000/svg">
<path d="M0 3.07449L7.7 1.57449C15.3 0.0744861 30.7 -2.92551 45.8 7.57449C61 18.0745 76 42.0745 91.2 46.3745C106.3 50.7745 121.7 35.3745 137 24.0745C152.3 12.7745 167.7 5.37447 183 3.87447C198.3 2.37447 213.7 6.77449 228.8 9.57449C244 12.3745 259 13.7745 274.2 19.2745C289.3 24.7745 304.7 34.3745 312.3 39.2745L320 44.0745V226.074H312.3C304.7 226.074 289.3 226.074 274.2 226.074C259 226.074 244 226.074 228.8 226.074C213.7 226.074 198.3 226.074 183 226.074C167.7 226.074 152.3 226.074 137 226.074C121.7 226.074 106.3 226.074 91.2 226.074C76 226.074 61 226.074 45.8 226.074C30.7 226.074 15.3 226.074 7.7 226.074H0V3.07449Z" fill="#D9DCE9"/>
<path d="M0 96.0744L7.7 89.5744C15.3 83.0744 30.7 70.0744 45.8 61.3744C61 52.7744 76 48.3744 91.2 52.0744C106.3 55.7744 121.7 67.3744 137 67.5744C152.3 67.7744 167.7 56.3744 183 49.0744C198.3 41.7744 213.7 38.3744 228.8 47.0744C244 55.7744 259 76.3744 274.2 84.3744C289.3 92.3744 304.7 87.7744 312.3 85.3744L320 83.0744V226.074H312.3C304.7 226.074 289.3 226.074 274.2 226.074C259 226.074 244 226.074 228.8 226.074C213.7 226.074 198.3 226.074 183 226.074C167.7 226.074 152.3 226.074 137 226.074C121.7 226.074 106.3 226.074 91.2 226.074C76 226.074 61 226.074 45.8 226.074C30.7 226.074 15.3 226.074 7.7 226.074H0V96.0744Z" fill="#AAB2CE"/>
<path d="M0 77.0745L7.7 84.3745C15.3 91.7745 30.7 106.374 45.8 112.774C61 119.074 76 117.074 91.2 112.274C106.3 107.374 121.7 99.7745 137 103.574C152.3 107.374 167.7 122.774 183 128.274C198.3 133.774 213.7 129.374 228.8 126.274C244 123.074 259 121.074 274.2 114.874C289.3 108.774 304.7 98.3745 312.3 93.2745L320 88.0745V226.074H312.3C304.7 226.074 289.3 226.074 274.2 226.074C259 226.074 244 226.074 228.8 226.074C213.7 226.074 198.3 226.074 183 226.074C167.7 226.074 152.3 226.074 137 226.074C121.7 226.074 106.3 226.074 91.2 226.074C76 226.074 61 226.074 45.8 226.074C30.7 226.074 15.3 226.074 7.7 226.074H0V77.0745Z" fill="#7C89B4"/>
<path d="M0 147.074L7.7 145.874C15.3 144.774 30.7 142.374 45.8 144.074C61 145.774 76 151.374 91.2 149.074C106.3 146.774 121.7 136.374 137 131.874C152.3 127.374 167.7 128.774 183 130.574C198.3 132.374 213.7 134.774 228.8 138.374C244 142.074 259 147.074 274.2 144.374C289.3 141.774 304.7 131.374 312.3 126.274L320 121.074V226.074H312.3C304.7 226.074 289.3 226.074 274.2 226.074C259 226.074 244 226.074 228.8 226.074C213.7 226.074 198.3 226.074 183 226.074C167.7 226.074 152.3 226.074 137 226.074C121.7 226.074 106.3 226.074 91.2 226.074C76 226.074 61 226.074 45.8 226.074C30.7 226.074 15.3 226.074 7.7 226.074H0V147.074Z" fill="#4C639A"/>
<path d="M0 175.074L7.7 176.074C15.3 177.074 30.7 179.074 45.8 178.774C61 178.374 76 175.774 91.2 175.774C106.3 175.774 121.7 178.374 137 178.374C152.3 178.374 167.7 175.774 183 173.274C198.3 170.774 213.7 168.374 228.8 168.574C244 168.774 259 171.374 274.2 177.074C289.3 182.774 304.7 191.374 312.3 195.774L320 200.074V226.074H312.3C304.7 226.074 289.3 226.074 274.2 226.074C259 226.074 244 226.074 228.8 226.074C213.7 226.074 198.3 226.074 183 226.074C167.7 226.074 152.3 226.074 137 226.074C121.7 226.074 106.3 226.074 91.2 226.074C76 226.074 61 226.074 45.8 226.074C30.7 226.074 15.3 226.074 7.7 226.074H0V175.074Z" fill="#004080"/>
</svg>
