<svg width="192" height="192" viewBox="0 0 192 192" fill="none" xmlns="http://www.w3.org/2000/svg">
<path d="M192 0C166.6 15.4 141.3 30.9 135.8 56.3C130.3 81.6 144.8 116.9 135.8 135.8C126.7 154.6 94.3 156.9 67.7 163.5C41.2 170.1 20.6 181.1 0 192V0H192Z" fill="#D9DCE9"/>
<path d="M144 0C125 11.6 106 23.2 101.9 42.2C97.8 61.2 108.6 87.7 101.8 101.8C95.1 115.9 70.7 117.7 50.8 122.6C30.9 127.6 15.4 135.8 0 144V0H144Z" fill="#8F99BF"/>
<path d="M96 0C83.3 7.7 70.6 15.4 67.9 28.1C65.2 40.8 72.4 58.5 67.9 67.9C63.4 77.3 47.1 78.5 33.9 81.8C20.6 85.1 10.3 90.5 0 96V0H96Z" fill="#415C95"/>
<path d="M48 0C41.7 3.9 35.3 7.7 34 14.1C32.6 20.4 36.2 29.2 33.9 33.9C31.7 38.6 23.6 39.2 16.9 40.9C10.3 42.5 5.1 45.3 0 48V0H48Z" fill="#004080"/>
</svg>
